<svg id="visual" viewBox="0 0 900 600" width="900" height="600" xmlns="http://www.w3.org/2000/svg" xmlns:xlink="http://www.w3.org/1999/xlink" version="1.1"><g stroke-width="1" stroke-linejoin="bevel"><path d="M466 325L522.3 331L485 309Z" fill="#f5f5f5" stroke="#f5f5f5"></path><path d="M522.3 331L532.3 308L485 309Z" fill="#f4f4f4" stroke="#f4f4f4"></path><path d="M466 325L538.6 360L522.3 331Z" fill="#e5e5e5" stroke="#e5e5e5"></path><path d="M522.3 331L538.6 360L532.3 308Z" fill="#f2f2f2" stroke="#f2f2f2"></path><path d="M532.3 308L482 261L485 309Z" fill="#f4f4f4" stroke="#f4f4f4"></path><path d="M485 309L416.7 295L466 325Z" fill="#e2e2e2" stroke="#e2e2e2"></path><path d="M482 261L416.7 295L485 309Z" fill="#e5e5e5" stroke="#e5e5e5"></path><path d="M538.6 360L556.6 276L532.3 308Z" fill="#efefef" stroke="#efefef"></path><path d="M532.3 308L556.6 276L482 261Z" fill="#ececec" stroke="#ececec"></path><path d="M381.7 327L410.7 383L466 325Z" fill="#f4f4f4" stroke="#f4f4f4"></path><path d="M466 325L429 438L538.6 360Z" fill="#f6f6f6" stroke="#f6f6f6"></path><path d="M416.7 295L381.7 327L466 325Z" fill="#f4f4f4" stroke="#f4f4f4"></path><path d="M638.9 288L582.6 265L556.6 276Z" fill="#f2f2f2" stroke="#f2f2f2"></path><path d="M556.6 276L526.3 226L482 261Z" fill="#ececec" stroke="#ececec"></path><path d="M582.6 265L526.3 226L556.6 276Z" fill="#e5e5e5" stroke="#e5e5e5"></path><path d="M482 261L384.7 275L416.7 295Z" fill="#e5e5e5" stroke="#e5e5e5"></path><path d="M433 515L429 438L351.7 473Z" fill="#e8e8e8" stroke="#e8e8e8"></path><path d="M410.7 383L429 438L466 325Z" fill="#efefef" stroke="#efefef"></path><path d="M479 467L537.3 452L538.6 360Z" fill="#e5e5e5" stroke="#e5e5e5"></path><path d="M538.6 360L638.9 288L556.6 276Z" fill="#f3f3f3" stroke="#f3f3f3"></path><path d="M474 200L384.7 275L482 261Z" fill="#e5e5e5" stroke="#e5e5e5"></path><path d="M416.7 295L384.7 275L381.7 327Z" fill="#f5f5f5" stroke="#f5f5f5"></path><path d="M537.3 452L566.6 440L538.6 360Z" fill="#e8e8e8" stroke="#e8e8e8"></path><path d="M429 438L479 467L538.6 360Z" fill="#efefef" stroke="#efefef"></path><path d="M566.6 440L616.9 399L538.6 360Z" fill="#f4f4f4" stroke="#f4f4f4"></path><path d="M526.3 226L474 200L482 261Z" fill="#efefef" stroke="#efefef"></path><path d="M616.9 399L638.9 288L538.6 360Z" fill="#f3f3f3" stroke="#f3f3f3"></path><path d="M582.6 265L548.6 177L526.3 226Z" fill="#f3f3f3" stroke="#f3f3f3"></path><path d="M537.3 452L605.6 464L566.6 440Z" fill="#e2e2e2" stroke="#e2e2e2"></path><path d="M566.6 440L605.6 464L616.9 399Z" fill="#e2e2e2" stroke="#e2e2e2"></path><path d="M616.9 399L699.1 331L638.9 288Z" fill="#e5e5e5" stroke="#e5e5e5"></path><path d="M606.9 507L605.6 464L537.3 452Z" fill="#f4f4f4" stroke="#f4f4f4"></path><path d="M559.6 146L548.6 177L635.9 142Z" fill="#f3f3f3" stroke="#f3f3f3"></path><path d="M526.3 226L548.6 177L474 200Z" fill="#f3f3f3" stroke="#f3f3f3"></path><path d="M433 515L512.3 507L479 467Z" fill="#e2e2e2" stroke="#e2e2e2"></path><path d="M479 467L512.3 507L537.3 452Z" fill="#f3f3f3" stroke="#f3f3f3"></path><path d="M512.3 507L516.3 507L537.3 452Z" fill="#f4f4f4" stroke="#f4f4f4"></path><path d="M474 200L359.4 220L384.7 275Z" fill="#e2e2e2" stroke="#e2e2e2"></path><path d="M384.7 275L298.4 307L381.7 327Z" fill="#e2e2e2" stroke="#e2e2e2"></path><path d="M411.7 145L359.4 220L474 200Z" fill="#e8e8e8" stroke="#e8e8e8"></path><path d="M653.9 444L657.9 422L616.9 399Z" fill="#ececec" stroke="#ececec"></path><path d="M351.7 473L429 438L410.7 383Z" fill="#ececec" stroke="#ececec"></path><path d="M429 438L433 515L479 467Z" fill="#e2e2e2" stroke="#e2e2e2"></path><path d="M507.3 600L592.6 551L516.3 507Z" fill="#e5e5e5" stroke="#e5e5e5"></path><path d="M548.6 177L483 151L474 200Z" fill="#f2f2f2" stroke="#f2f2f2"></path><path d="M605.6 464L653.9 444L616.9 399Z" fill="#f6f6f6" stroke="#f6f6f6"></path><path d="M606.9 507L653.9 444L605.6 464Z" fill="#f5f5f5" stroke="#f5f5f5"></path><path d="M295.4 355L410.7 383L381.7 327Z" fill="#f4f4f4" stroke="#f4f4f4"></path><path d="M320.4 440L351.7 473L410.7 383Z" fill="#f3f3f3" stroke="#f3f3f3"></path><path d="M548.6 177L494.3 141L483 151Z" fill="#f4f4f4" stroke="#f4f4f4"></path><path d="M483 151L411.7 145L474 200Z" fill="#ececec" stroke="#ececec"></path><path d="M359.4 220L298.4 307L384.7 275Z" fill="#f4f4f4" stroke="#f4f4f4"></path><path d="M298.4 307L295.4 355L381.7 327Z" fill="#f2f2f2" stroke="#f2f2f2"></path><path d="M295.4 355L320.4 440L410.7 383Z" fill="#f3f3f3" stroke="#f3f3f3"></path><path d="M666.9 218L548.6 177L582.6 265Z" fill="#e2e2e2" stroke="#e2e2e2"></path><path d="M548.6 177L559.6 146L494.3 141Z" fill="#f2f2f2" stroke="#f2f2f2"></path><path d="M592.6 551L606.9 507L516.3 507Z" fill="#f5f5f5" stroke="#f5f5f5"></path><path d="M516.3 507L606.9 507L537.3 452Z" fill="#e5e5e5" stroke="#e5e5e5"></path><path d="M689.1 415L699.1 331L657.9 422Z" fill="#f2f2f2" stroke="#f2f2f2"></path><path d="M657.9 422L699.1 331L616.9 399Z" fill="#f5f5f5" stroke="#f5f5f5"></path><path d="M638.9 288L666.9 218L582.6 265Z" fill="#f4f4f4" stroke="#f4f4f4"></path><path d="M455 91L411.7 145L483 151Z" fill="#e5e5e5" stroke="#e5e5e5"></path><path d="M359.4 220L277.1 293L298.4 307Z" fill="#e2e2e2" stroke="#e2e2e2"></path><path d="M680.1 454L657.9 422L653.9 444Z" fill="#efefef" stroke="#efefef"></path><path d="M680.1 454L689.1 415L657.9 422Z" fill="#f6f6f6" stroke="#f6f6f6"></path><path d="M689.1 232L666.9 218L638.9 288Z" fill="#f4f4f4" stroke="#f4f4f4"></path><path d="M559.6 146L488.3 122L494.3 141Z" fill="#f3f3f3" stroke="#f3f3f3"></path><path d="M494.3 141L488.3 122L483 151Z" fill="#f2f2f2" stroke="#f2f2f2"></path><path d="M231.9 294L280.1 378L295.4 355Z" fill="#f3f3f3" stroke="#f3f3f3"></path><path d="M295.4 355L280.1 378L320.4 440Z" fill="#efefef" stroke="#efefef"></path><path d="M411.7 145L352.7 171L359.4 220Z" fill="#e2e2e2" stroke="#e2e2e2"></path><path d="M280.1 378L295.1 430L320.4 440Z" fill="#f6f6f6" stroke="#f6f6f6"></path><path d="M312.4 500L350.7 513L351.7 473Z" fill="#f2f2f2" stroke="#f2f2f2"></path><path d="M606.9 507L680.1 454L653.9 444Z" fill="#ececec" stroke="#ececec"></path><path d="M306.4 189L277.1 293L359.4 220Z" fill="#ececec" stroke="#ececec"></path><path d="M298.4 307L277.1 293L295.4 355Z" fill="#f2f2f2" stroke="#f2f2f2"></path><path d="M716.1 282L689.1 232L638.9 288Z" fill="#f5f5f5" stroke="#f5f5f5"></path><path d="M666.9 218L635.9 142L548.6 177Z" fill="#efefef" stroke="#efefef"></path><path d="M312.4 500L351.7 473L320.4 440Z" fill="#e8e8e8" stroke="#e8e8e8"></path><path d="M351.7 473L350.7 513L433 515Z" fill="#e8e8e8" stroke="#e8e8e8"></path><path d="M699.1 331L716.1 282L638.9 288Z" fill="#f3f3f3" stroke="#f3f3f3"></path><path d="M757.4 303L716.1 282L699.1 331Z" fill="#f4f4f4" stroke="#f4f4f4"></path><path d="M507.3 600L516.3 507L512.3 507Z" fill="#f2f2f2" stroke="#f2f2f2"></path><path d="M606.9 507L704.1 547L680.1 454Z" fill="#f5f5f5" stroke="#f5f5f5"></path><path d="M507.3 600L512.3 507L433 515Z" fill="#e8e8e8" stroke="#e8e8e8"></path><path d="M263.1 165L306.4 189L328.4 99Z" fill="#e5e5e5" stroke="#e5e5e5"></path><path d="M352.7 171L306.4 189L359.4 220Z" fill="#f3f3f3" stroke="#f3f3f3"></path><path d="M669.9 148L635.9 142L666.9 218Z" fill="#e8e8e8" stroke="#e8e8e8"></path><path d="M486.3 58L455 91L488.3 122Z" fill="#f6f6f6" stroke="#f6f6f6"></path><path d="M295.1 430L312.4 500L320.4 440Z" fill="#ececec" stroke="#ececec"></path><path d="M245.1 453L312.4 500L295.1 430Z" fill="#f6f6f6" stroke="#f6f6f6"></path><path d="M763.4 452L732.4 395L689.1 415Z" fill="#f4f4f4" stroke="#f4f4f4"></path><path d="M689.1 415L732.4 395L699.1 331Z" fill="#f5f5f5" stroke="#f5f5f5"></path><path d="M488.3 122L455 91L483 151Z" fill="#efefef" stroke="#efefef"></path><path d="M411.7 145L328.4 99L352.7 171Z" fill="#f2f2f2" stroke="#f2f2f2"></path><path d="M560.6 73L488.3 122L559.6 146Z" fill="#f3f3f3" stroke="#f3f3f3"></path><path d="M686.1 146L669.9 148L666.9 218Z" fill="#f6f6f6" stroke="#f6f6f6"></path><path d="M635.9 142L560.6 73L559.6 146Z" fill="#f4f4f4" stroke="#f4f4f4"></path><path d="M686.1 146L666.9 218L689.1 232Z" fill="#e2e2e2" stroke="#e2e2e2"></path><path d="M263.1 165L266.1 208L306.4 189Z" fill="#ececec" stroke="#ececec"></path><path d="M306.4 189L266.1 208L277.1 293Z" fill="#e8e8e8" stroke="#e8e8e8"></path><path d="M277.1 293L231.9 294L295.4 355Z" fill="#efefef" stroke="#efefef"></path><path d="M442 600L433 515L375.7 600Z" fill="#e8e8e8" stroke="#e8e8e8"></path><path d="M442 600L507.3 600L433 515Z" fill="#e8e8e8" stroke="#e8e8e8"></path><path d="M230.9 244L231.9 294L277.1 293Z" fill="#f4f4f4" stroke="#f4f4f4"></path><path d="M280.1 378L245.1 453L295.1 430Z" fill="#f4f4f4" stroke="#f4f4f4"></path><path d="M732.4 395L757.4 303L699.1 331Z" fill="#e8e8e8" stroke="#e8e8e8"></path><path d="M716.1 282L766.4 252L689.1 232Z" fill="#f4f4f4" stroke="#f4f4f4"></path><path d="M375.7 600L433 515L350.7 513Z" fill="#e5e5e5" stroke="#e5e5e5"></path><path d="M732.4 153L686.1 146L689.1 232Z" fill="#f4f4f4" stroke="#f4f4f4"></path><path d="M669.9 148L705.1 116L635.9 142Z" fill="#ececec" stroke="#ececec"></path><path d="M620.9 40L560.6 73L635.9 142Z" fill="#f4f4f4" stroke="#f4f4f4"></path><path d="M204.9 418L245.1 453L280.1 378Z" fill="#e5e5e5" stroke="#e5e5e5"></path><path d="M298.4 552L375.7 600L350.7 513Z" fill="#f6f6f6" stroke="#f6f6f6"></path><path d="M266.1 208L230.9 244L277.1 293Z" fill="#f6f6f6" stroke="#f6f6f6"></path><path d="M560.6 73L486.3 58L488.3 122Z" fill="#e5e5e5" stroke="#e5e5e5"></path><path d="M328.4 99L306.4 189L352.7 171Z" fill="#f6f6f6" stroke="#f6f6f6"></path><path d="M507.3 600L597.6 600L592.6 551Z" fill="#f3f3f3" stroke="#f3f3f3"></path><path d="M592.6 551L704.1 547L606.9 507Z" fill="#f4f4f4" stroke="#f4f4f4"></path><path d="M680.1 454L763.4 452L689.1 415Z" fill="#e2e2e2" stroke="#e2e2e2"></path><path d="M757.4 303L766.4 252L716.1 282Z" fill="#f5f5f5" stroke="#f5f5f5"></path><path d="M298.4 552L350.7 513L312.4 500Z" fill="#f2f2f2" stroke="#f2f2f2"></path><path d="M328.4 99L411.7 145L375.7 37Z" fill="#f6f6f6" stroke="#f6f6f6"></path><path d="M266.1 208L170.9 186L230.9 244Z" fill="#e2e2e2" stroke="#e2e2e2"></path><path d="M261.1 561L298.4 552L312.4 500Z" fill="#f6f6f6" stroke="#f6f6f6"></path><path d="M375.7 37L411.7 145L455 91Z" fill="#f4f4f4" stroke="#f4f4f4"></path><path d="M764.4 492L763.4 452L680.1 454Z" fill="#f4f4f4" stroke="#f4f4f4"></path><path d="M732.4 395L800.7 360L757.4 303Z" fill="#f6f6f6" stroke="#f6f6f6"></path><path d="M757.4 303L814.7 252L766.4 252Z" fill="#ececec" stroke="#ececec"></path><path d="M636.9 600L704.1 547L592.6 551Z" fill="#f6f6f6" stroke="#f6f6f6"></path><path d="M597.6 600L636.9 600L592.6 551Z" fill="#f4f4f4" stroke="#f4f4f4"></path><path d="M162.9 383L280.1 378L231.9 294Z" fill="#e5e5e5" stroke="#e5e5e5"></path><path d="M162.9 383L204.9 418L280.1 378Z" fill="#f4f4f4" stroke="#f4f4f4"></path><path d="M245.1 453L261.1 561L312.4 500Z" fill="#e2e2e2" stroke="#e2e2e2"></path><path d="M769.4 169L732.4 153L689.1 232Z" fill="#f4f4f4" stroke="#f4f4f4"></path><path d="M686.1 146L705.1 116L669.9 148Z" fill="#e8e8e8" stroke="#e8e8e8"></path><path d="M732.4 153L705.1 116L686.1 146Z" fill="#f2f2f2" stroke="#f2f2f2"></path><path d="M763.4 452L800.7 360L732.4 395Z" fill="#efefef" stroke="#efefef"></path><path d="M704.1 547L764.4 492L680.1 454Z" fill="#e2e2e2" stroke="#e2e2e2"></path><path d="M763.4 452L873.7 418L800.7 360Z" fill="#e8e8e8" stroke="#e8e8e8"></path><path d="M261.1 561L310.4 600L298.4 552Z" fill="#ececec" stroke="#ececec"></path><path d="M298.4 552L310.4 600L375.7 600Z" fill="#e8e8e8" stroke="#e8e8e8"></path><path d="M203.9 524L261.1 561L245.1 453Z" fill="#efefef" stroke="#efefef"></path><path d="M448 0L375.7 37L455 91Z" fill="#ececec" stroke="#ececec"></path><path d="M328.4 99L267.1 94L263.1 165Z" fill="#e5e5e5" stroke="#e5e5e5"></path><path d="M766.4 252L769.4 169L689.1 232Z" fill="#f4f4f4" stroke="#f4f4f4"></path><path d="M732.4 153L758.4 49L705.1 116Z" fill="#e2e2e2" stroke="#e2e2e2"></path><path d="M814.7 252L769.4 169L766.4 252Z" fill="#f2f2f2" stroke="#f2f2f2"></path><path d="M704.1 34L620.9 40L705.1 116Z" fill="#f5f5f5" stroke="#f5f5f5"></path><path d="M705.1 116L620.9 40L635.9 142Z" fill="#f6f6f6" stroke="#f6f6f6"></path><path d="M540.6 0L500.3 0L486.3 58Z" fill="#f6f6f6" stroke="#f6f6f6"></path><path d="M486.3 58L448 0L455 91Z" fill="#f5f5f5" stroke="#f5f5f5"></path><path d="M157.6 228L166.6 302L230.9 244Z" fill="#f3f3f3" stroke="#f3f3f3"></path><path d="M230.9 244L166.6 302L231.9 294Z" fill="#f4f4f4" stroke="#f4f4f4"></path><path d="M325.4 27L267.1 94L328.4 99Z" fill="#efefef" stroke="#efefef"></path><path d="M170.9 186L157.6 228L230.9 244Z" fill="#e5e5e5" stroke="#e5e5e5"></path><path d="M800.7 360L814.7 252L757.4 303Z" fill="#f2f2f2" stroke="#f2f2f2"></path><path d="M166.6 302L162.9 383L231.9 294Z" fill="#e2e2e2" stroke="#e2e2e2"></path><path d="M204.9 418L168.9 445L245.1 453Z" fill="#f5f5f5" stroke="#f5f5f5"></path><path d="M166.6 302L158.6 381L162.9 383Z" fill="#e8e8e8" stroke="#e8e8e8"></path><path d="M162.9 383L168.9 445L204.9 418Z" fill="#f4f4f4" stroke="#f4f4f4"></path><path d="M540.6 0L486.3 58L560.6 73Z" fill="#ececec" stroke="#ececec"></path><path d="M780.4 560L801.7 478L764.4 492Z" fill="#f4f4f4" stroke="#f4f4f4"></path><path d="M764.4 492L801.7 478L763.4 452Z" fill="#f4f4f4" stroke="#f4f4f4"></path><path d="M800.7 360L867.7 318L814.7 252Z" fill="#f2f2f2" stroke="#f2f2f2"></path><path d="M780.4 560L764.4 492L704.1 547Z" fill="#e8e8e8" stroke="#e8e8e8"></path><path d="M500.3 0L448 0L486.3 58Z" fill="#ececec" stroke="#ececec"></path><path d="M620.9 40L540.6 0L560.6 73Z" fill="#efefef" stroke="#efefef"></path><path d="M132.6 442L168.9 445L162.9 383Z" fill="#f4f4f4" stroke="#f4f4f4"></path><path d="M165.6 504L203.9 524L245.1 453Z" fill="#ececec" stroke="#ececec"></path><path d="M261.1 561L226.9 600L310.4 600Z" fill="#e8e8e8" stroke="#e8e8e8"></path><path d="M448 0L398.7 0L375.7 37Z" fill="#e8e8e8" stroke="#e8e8e8"></path><path d="M375.7 37L325.4 27L328.4 99Z" fill="#f5f5f5" stroke="#f5f5f5"></path><path d="M170.9 186L266.1 208L263.1 165Z" fill="#f4f4f4" stroke="#f4f4f4"></path><path d="M91.3 402L132.6 442L158.6 381Z" fill="#e2e2e2" stroke="#e2e2e2"></path><path d="M398.7 0L325.4 27L375.7 37Z" fill="#e8e8e8" stroke="#e8e8e8"></path><path d="M235.1 89L263.1 165L267.1 94Z" fill="#e8e8e8" stroke="#e8e8e8"></path><path d="M174.9 137L170.9 186L263.1 165Z" fill="#e5e5e5" stroke="#e5e5e5"></path><path d="M295.4 0L235.1 89L267.1 94Z" fill="#efefef" stroke="#efefef"></path><path d="M814.7 252L804.7 159L769.4 169Z" fill="#f5f5f5" stroke="#f5f5f5"></path><path d="M769.4 169L820.7 99L732.4 153Z" fill="#efefef" stroke="#efefef"></path><path d="M746.1 600L780.4 560L704.1 547Z" fill="#f2f2f2" stroke="#f2f2f2"></path><path d="M636.9 600L746.1 600L704.1 547Z" fill="#efefef" stroke="#efefef"></path><path d="M168.9 445L165.6 504L245.1 453Z" fill="#f2f2f2" stroke="#f2f2f2"></path><path d="M217.1 600L226.9 600L261.1 561Z" fill="#f3f3f3" stroke="#f3f3f3"></path><path d="M137.6 455L165.6 504L168.9 445Z" fill="#efefef" stroke="#efefef"></path><path d="M758.4 49L704.1 34L705.1 116Z" fill="#e5e5e5" stroke="#e5e5e5"></path><path d="M620.9 40L651.9 0L540.6 0Z" fill="#efefef" stroke="#efefef"></path><path d="M704.1 34L651.9 0L620.9 40Z" fill="#f3f3f3" stroke="#f3f3f3"></path><path d="M217.1 600L261.1 561L203.9 524Z" fill="#e5e5e5" stroke="#e5e5e5"></path><path d="M132.6 442L162.9 383L158.6 381Z" fill="#e2e2e2" stroke="#e2e2e2"></path><path d="M132.6 442L137.6 455L168.9 445Z" fill="#e2e2e2" stroke="#e2e2e2"></path><path d="M873.7 418L763.4 452L801.7 478Z" fill="#f4f4f4" stroke="#f4f4f4"></path><path d="M900 346L867.7 318L800.7 360Z" fill="#e2e2e2" stroke="#e2e2e2"></path><path d="M814.7 252L900 205L804.7 159Z" fill="#f5f5f5" stroke="#f5f5f5"></path><path d="M80.3 312L158.6 381L166.6 302Z" fill="#f3f3f3" stroke="#f3f3f3"></path><path d="M235.1 89L174.9 137L263.1 165Z" fill="#f4f4f4" stroke="#f4f4f4"></path><path d="M170.9 186L132.6 206L157.6 228Z" fill="#f4f4f4" stroke="#f4f4f4"></path><path d="M746.1 600L763.4 600L780.4 560Z" fill="#f5f5f5" stroke="#f5f5f5"></path><path d="M141.6 600L203.9 524L165.6 504Z" fill="#f4f4f4" stroke="#f4f4f4"></path><path d="M141.6 600L217.1 600L203.9 524Z" fill="#e2e2e2" stroke="#e2e2e2"></path><path d="M132.6 144L132.6 206L170.9 186Z" fill="#ececec" stroke="#ececec"></path><path d="M157.6 228L101.3 274L166.6 302Z" fill="#efefef" stroke="#efefef"></path><path d="M846.7 560L801.7 478L780.4 560Z" fill="#f3f3f3" stroke="#f3f3f3"></path><path d="M900 456L873.7 418L900 460Z" fill="#f2f2f2" stroke="#f2f2f2"></path><path d="M398.7 0L295.4 0L325.4 27Z" fill="#f4f4f4" stroke="#f4f4f4"></path><path d="M325.4 27L295.4 0L267.1 94Z" fill="#f5f5f5" stroke="#f5f5f5"></path><path d="M235.1 89L174.9 95L174.9 137Z" fill="#f6f6f6" stroke="#f6f6f6"></path><path d="M820.7 99L758.4 49L732.4 153Z" fill="#e5e5e5" stroke="#e5e5e5"></path><path d="M704.1 34L697.1 0L651.9 0Z" fill="#f4f4f4" stroke="#f4f4f4"></path><path d="M758.4 49L697.1 0L704.1 34Z" fill="#f4f4f4" stroke="#f4f4f4"></path><path d="M132.6 206L101.3 274L157.6 228Z" fill="#e5e5e5" stroke="#e5e5e5"></path><path d="M212.9 0L174.9 95L235.1 89Z" fill="#f3f3f3" stroke="#f3f3f3"></path><path d="M174.9 137L132.6 144L170.9 186Z" fill="#f3f3f3" stroke="#f3f3f3"></path><path d="M132.6 206L48.3 189L101.3 274Z" fill="#f3f3f3" stroke="#f3f3f3"></path><path d="M900 115L820.7 99L804.7 159Z" fill="#f2f2f2" stroke="#f2f2f2"></path><path d="M804.7 159L820.7 99L769.4 169Z" fill="#f3f3f3" stroke="#f3f3f3"></path><path d="M132.6 442L102.3 501L137.6 455Z" fill="#f5f5f5" stroke="#f5f5f5"></path><path d="M137.6 455L102.3 501L165.6 504Z" fill="#f4f4f4" stroke="#f4f4f4"></path><path d="M80.3 312L91.3 402L158.6 381Z" fill="#f3f3f3" stroke="#f3f3f3"></path><path d="M900 346L900 330L867.7 318Z" fill="#e2e2e2" stroke="#e2e2e2"></path><path d="M867.7 318L900 247L814.7 252Z" fill="#f5f5f5" stroke="#f5f5f5"></path><path d="M873.7 418L900 346L800.7 360Z" fill="#ececec" stroke="#ececec"></path><path d="M174.9 95L132.6 144L174.9 137Z" fill="#f4f4f4" stroke="#f4f4f4"></path><path d="M0 322L80.3 312L0 223Z" fill="#f3f3f3" stroke="#f3f3f3"></path><path d="M101.3 274L80.3 312L166.6 302Z" fill="#f4f4f4" stroke="#f4f4f4"></path><path d="M763.4 600L816.7 600L780.4 560Z" fill="#f5f5f5" stroke="#f5f5f5"></path><path d="M873.7 418L900 456L900 346Z" fill="#f5f5f5" stroke="#f5f5f5"></path><path d="M900 330L900 247L867.7 318Z" fill="#f4f4f4" stroke="#f4f4f4"></path><path d="M816.7 600L846.7 560L780.4 560Z" fill="#e5e5e5" stroke="#e5e5e5"></path><path d="M43.3 398L102.3 501L91.3 402Z" fill="#e2e2e2" stroke="#e2e2e2"></path><path d="M91.3 402L102.3 501L132.6 442Z" fill="#f5f5f5" stroke="#f5f5f5"></path><path d="M900 460L873.7 418L801.7 478Z" fill="#ececec" stroke="#ececec"></path><path d="M846.7 560L900 460L801.7 478Z" fill="#f4f4f4" stroke="#f4f4f4"></path><path d="M900 247L900 205L814.7 252Z" fill="#e8e8e8" stroke="#e8e8e8"></path><path d="M83.3 99L101.3 156L132.6 144Z" fill="#e5e5e5" stroke="#e5e5e5"></path><path d="M132.6 144L101.3 156L132.6 206Z" fill="#f5f5f5" stroke="#f5f5f5"></path><path d="M295.4 0L217.1 0L235.1 89Z" fill="#ececec" stroke="#ececec"></path><path d="M174.9 95L83.3 99L132.6 144Z" fill="#ececec" stroke="#ececec"></path><path d="M102.3 501L141.6 600L165.6 504Z" fill="#f2f2f2" stroke="#f2f2f2"></path><path d="M217.1 0L212.9 0L235.1 89Z" fill="#f4f4f4" stroke="#f4f4f4"></path><path d="M80.3 312L43.3 398L91.3 402Z" fill="#f4f4f4" stroke="#f4f4f4"></path><path d="M102.3 501L103.3 600L141.6 600Z" fill="#f6f6f6" stroke="#f6f6f6"></path><path d="M0 322L43.3 398L80.3 312Z" fill="#f3f3f3" stroke="#f3f3f3"></path><path d="M900 600L900 551L846.7 560Z" fill="#f2f2f2" stroke="#f2f2f2"></path><path d="M846.7 560L900 551L900 460Z" fill="#f4f4f4" stroke="#f4f4f4"></path><path d="M820.7 99L810.4 0L758.4 49Z" fill="#e8e8e8" stroke="#e8e8e8"></path><path d="M758.4 49L810.4 0L697.1 0Z" fill="#e2e2e2" stroke="#e2e2e2"></path><path d="M871.7 41L810.4 0L820.7 99Z" fill="#e2e2e2" stroke="#e2e2e2"></path><path d="M900 205L900 115L804.7 159Z" fill="#f2f2f2" stroke="#f2f2f2"></path><path d="M83.3 99L48.3 189L101.3 156Z" fill="#efefef" stroke="#efefef"></path><path d="M101.3 156L48.3 189L132.6 206Z" fill="#f6f6f6" stroke="#f6f6f6"></path><path d="M44.3 544L103.3 600L102.3 501Z" fill="#f6f6f6" stroke="#f6f6f6"></path><path d="M114.6 36L83.3 99L174.9 95Z" fill="#f4f4f4" stroke="#f4f4f4"></path><path d="M900 115L871.7 41L820.7 99Z" fill="#e2e2e2" stroke="#e2e2e2"></path><path d="M816.7 600L900 600L846.7 560Z" fill="#f3f3f3" stroke="#f3f3f3"></path><path d="M212.9 0L114.6 36L174.9 95Z" fill="#ececec" stroke="#ececec"></path><path d="M871.7 41L846.7 0L810.4 0Z" fill="#e8e8e8" stroke="#e8e8e8"></path><path d="M0 223L80.3 312L101.3 274Z" fill="#e5e5e5" stroke="#e5e5e5"></path><path d="M0 463L44.3 544L102.3 501Z" fill="#e2e2e2" stroke="#e2e2e2"></path><path d="M0 463L102.3 501L43.3 398Z" fill="#f5f5f5" stroke="#f5f5f5"></path><path d="M0 322L0 386L43.3 398Z" fill="#f2f2f2" stroke="#f2f2f2"></path><path d="M0 386L0 389L43.3 398Z" fill="#f4f4f4" stroke="#f4f4f4"></path><path d="M900 115L900 51L871.7 41Z" fill="#f2f2f2" stroke="#f2f2f2"></path><path d="M871.7 41L900 0L846.7 0Z" fill="#f2f2f2" stroke="#f2f2f2"></path><path d="M48.3 189L0 223L101.3 274Z" fill="#f4f4f4" stroke="#f4f4f4"></path><path d="M0 151L0 223L48.3 189Z" fill="#e5e5e5" stroke="#e5e5e5"></path><path d="M0 151L48.3 189L0 141Z" fill="#e2e2e2" stroke="#e2e2e2"></path><path d="M0 389L0 463L43.3 398Z" fill="#e8e8e8" stroke="#e8e8e8"></path><path d="M212.9 0L95.6 0L114.6 36Z" fill="#e5e5e5" stroke="#e5e5e5"></path><path d="M114.6 36L50.3 0L83.3 99Z" fill="#e5e5e5" stroke="#e5e5e5"></path><path d="M0 141L48.3 189L83.3 99Z" fill="#f4f4f4" stroke="#f4f4f4"></path><path d="M900 51L900 0L871.7 41Z" fill="#ececec" stroke="#ececec"></path><path d="M0 94L0 141L83.3 99Z" fill="#f4f4f4" stroke="#f4f4f4"></path><path d="M0 463L0 570L44.3 544Z" fill="#e8e8e8" stroke="#e8e8e8"></path><path d="M44.3 544L0 600L103.3 600Z" fill="#f4f4f4" stroke="#f4f4f4"></path><path d="M50.3 0L0 94L83.3 99Z" fill="#f3f3f3" stroke="#f3f3f3"></path><path d="M95.6 0L50.3 0L114.6 36Z" fill="#f4f4f4" stroke="#f4f4f4"></path><path d="M0 570L0 600L44.3 544Z" fill="#e2e2e2" stroke="#e2e2e2"></path><path d="M50.3 0L0 0L0 94Z" fill="#efefef" stroke="#efefef"></path></g></svg>