<svg id="visual" viewBox="0 0 900 600" width="900" height="600" xmlns="http://www.w3.org/2000/svg" xmlns:xlink="http://www.w3.org/1999/xlink" version="1.1"><g stroke-width="1" stroke-linejoin="bevel"><path d="M495 331L525 416L568 360Z" fill="#f2f2f2" stroke="#f2f2f2"></path><path d="M568 360L597 298L495 331Z" fill="#ececec" stroke="#ececec"></path><path d="M495 331L439 432L525 416Z" fill="#f6f6f6" stroke="#f6f6f6"></path><path d="M502 530L625 490L525 416Z" fill="#f3f3f3" stroke="#f3f3f3"></path><path d="M525 416L625 490L568 360Z" fill="#ececec" stroke="#ececec"></path><path d="M568 360L706 402L597 298Z" fill="#f2f2f2" stroke="#f2f2f2"></path><path d="M472 173L384 288L495 331Z" fill="#e2e2e2" stroke="#e2e2e2"></path><path d="M495 331L384 288L439 432Z" fill="#e5e5e5" stroke="#e5e5e5"></path><path d="M439 432L502 530L525 416Z" fill="#f3f3f3" stroke="#f3f3f3"></path><path d="M625 490L706 402L568 360Z" fill="#f4f4f4" stroke="#f4f4f4"></path><path d="M688 190L601 187L597 298Z" fill="#f2f2f2" stroke="#f2f2f2"></path><path d="M597 298L472 173L495 331Z" fill="#efefef" stroke="#efefef"></path><path d="M601 187L472 173L597 298Z" fill="#f3f3f3" stroke="#f3f3f3"></path><path d="M706 402L708 276L597 298Z" fill="#e8e8e8" stroke="#e8e8e8"></path><path d="M323 281L312 361L384 288Z" fill="#efefef" stroke="#efefef"></path><path d="M384 288L312 361L439 432Z" fill="#e8e8e8" stroke="#e8e8e8"></path><path d="M439 432L387 536L502 530Z" fill="#f4f4f4" stroke="#f4f4f4"></path><path d="M472 173L365 229L384 288Z" fill="#e5e5e5" stroke="#e5e5e5"></path><path d="M339 534L387 536L439 432Z" fill="#e2e2e2" stroke="#e2e2e2"></path><path d="M365 229L323 281L384 288Z" fill="#e2e2e2" stroke="#e2e2e2"></path><path d="M426 600L505 600L502 530Z" fill="#e2e2e2" stroke="#e2e2e2"></path><path d="M502 530L631 600L625 490Z" fill="#ececec" stroke="#ececec"></path><path d="M708 276L688 190L597 298Z" fill="#f5f5f5" stroke="#f5f5f5"></path><path d="M601 187L515 83L472 173Z" fill="#efefef" stroke="#efefef"></path><path d="M312 361L339 534L439 432Z" fill="#f2f2f2" stroke="#f2f2f2"></path><path d="M387 536L426 600L502 530Z" fill="#f2f2f2" stroke="#f2f2f2"></path><path d="M339 534L426 600L387 536Z" fill="#f4f4f4" stroke="#f4f4f4"></path><path d="M505 600L631 600L502 530Z" fill="#e5e5e5" stroke="#e5e5e5"></path><path d="M625 490L738 519L706 402Z" fill="#efefef" stroke="#efefef"></path><path d="M631 600L738 519L625 490Z" fill="#f4f4f4" stroke="#f4f4f4"></path><path d="M706 402L805 363L708 276Z" fill="#e8e8e8" stroke="#e8e8e8"></path><path d="M472 173L322 192L365 229Z" fill="#e5e5e5" stroke="#e5e5e5"></path><path d="M365 229L322 192L323 281Z" fill="#efefef" stroke="#efefef"></path><path d="M323 281L231 327L312 361Z" fill="#f2f2f2" stroke="#f2f2f2"></path><path d="M738 519L805 363L706 402Z" fill="#f4f4f4" stroke="#f4f4f4"></path><path d="M708 276L804 267L688 190Z" fill="#f2f2f2" stroke="#f2f2f2"></path><path d="M615 75L515 83L601 187Z" fill="#e5e5e5" stroke="#e5e5e5"></path><path d="M472 173L316 105L322 192Z" fill="#efefef" stroke="#efefef"></path><path d="M186 181L231 327L323 281Z" fill="#ececec" stroke="#ececec"></path><path d="M312 361L196 420L339 534Z" fill="#f2f2f2" stroke="#f2f2f2"></path><path d="M805 363L804 267L708 276Z" fill="#f3f3f3" stroke="#f3f3f3"></path><path d="M631 600L718 600L738 519Z" fill="#f3f3f3" stroke="#f3f3f3"></path><path d="M738 519L799 536L805 363Z" fill="#f3f3f3" stroke="#f3f3f3"></path><path d="M688 190L615 75L601 187Z" fill="#e5e5e5" stroke="#e5e5e5"></path><path d="M678 68L615 75L688 190Z" fill="#f2f2f2" stroke="#f2f2f2"></path><path d="M776 600L799 536L738 519Z" fill="#f2f2f2" stroke="#f2f2f2"></path><path d="M231 327L196 420L312 361Z" fill="#ececec" stroke="#ececec"></path><path d="M238 600L283 600L339 534Z" fill="#efefef" stroke="#efefef"></path><path d="M339 534L283 600L426 600Z" fill="#f2f2f2" stroke="#f2f2f2"></path><path d="M367 62L316 105L472 173Z" fill="#f4f4f4" stroke="#f4f4f4"></path><path d="M322 192L186 181L323 281Z" fill="#f6f6f6" stroke="#f6f6f6"></path><path d="M799 112L678 68L688 190Z" fill="#efefef" stroke="#efefef"></path><path d="M486 0L367 62L515 83Z" fill="#e2e2e2" stroke="#e2e2e2"></path><path d="M718 600L776 600L738 519Z" fill="#ececec" stroke="#ececec"></path><path d="M515 83L367 62L472 173Z" fill="#f2f2f2" stroke="#f2f2f2"></path><path d="M486 0L515 83L569 0Z" fill="#f2f2f2" stroke="#f2f2f2"></path><path d="M804 267L806 171L688 190Z" fill="#e2e2e2" stroke="#e2e2e2"></path><path d="M900 239L806 171L804 267Z" fill="#f4f4f4" stroke="#f4f4f4"></path><path d="M172 498L238 600L339 534Z" fill="#f2f2f2" stroke="#f2f2f2"></path><path d="M569 0L515 83L615 75Z" fill="#e2e2e2" stroke="#e2e2e2"></path><path d="M698 0L569 0L615 75Z" fill="#e5e5e5" stroke="#e5e5e5"></path><path d="M196 420L172 498L339 534Z" fill="#f4f4f4" stroke="#f4f4f4"></path><path d="M806 171L799 112L688 190Z" fill="#f6f6f6" stroke="#f6f6f6"></path><path d="M678 68L698 0L615 75Z" fill="#efefef" stroke="#efefef"></path><path d="M799 536L900 400L805 363Z" fill="#f3f3f3" stroke="#f3f3f3"></path><path d="M805 363L900 329L804 267Z" fill="#f2f2f2" stroke="#f2f2f2"></path><path d="M806 171L900 83L799 112Z" fill="#ececec" stroke="#ececec"></path><path d="M900 536L900 400L799 536Z" fill="#f5f5f5" stroke="#f5f5f5"></path><path d="M900 400L900 329L805 363Z" fill="#efefef" stroke="#efefef"></path><path d="M316 105L186 181L322 192Z" fill="#ececec" stroke="#ececec"></path><path d="M87 418L112 475L196 420Z" fill="#f6f6f6" stroke="#f6f6f6"></path><path d="M196 420L112 475L172 498Z" fill="#f5f5f5" stroke="#f5f5f5"></path><path d="M166 92L186 181L316 105Z" fill="#f6f6f6" stroke="#f6f6f6"></path><path d="M486 0L382 0L367 62Z" fill="#ececec" stroke="#ececec"></path><path d="M367 62L298 0L316 105Z" fill="#f5f5f5" stroke="#f5f5f5"></path><path d="M900 329L900 239L804 267Z" fill="#f4f4f4" stroke="#f4f4f4"></path><path d="M799 112L698 0L678 68Z" fill="#f4f4f4" stroke="#f4f4f4"></path><path d="M900 600L900 536L799 536Z" fill="#e8e8e8" stroke="#e8e8e8"></path><path d="M87 418L196 420L231 327Z" fill="#e8e8e8" stroke="#e8e8e8"></path><path d="M172 498L96 600L238 600Z" fill="#f5f5f5" stroke="#f5f5f5"></path><path d="M382 0L298 0L367 62Z" fill="#f2f2f2" stroke="#f2f2f2"></path><path d="M75 274L87 418L231 327Z" fill="#f6f6f6" stroke="#f6f6f6"></path><path d="M776 600L900 600L799 536Z" fill="#e8e8e8" stroke="#e8e8e8"></path><path d="M210 0L166 92L316 105Z" fill="#f4f4f4" stroke="#f4f4f4"></path><path d="M186 181L75 274L231 327Z" fill="#f3f3f3" stroke="#f3f3f3"></path><path d="M77 210L75 274L186 181Z" fill="#f6f6f6" stroke="#f6f6f6"></path><path d="M78 128L77 210L186 181Z" fill="#e5e5e5" stroke="#e5e5e5"></path><path d="M900 83L819 0L799 112Z" fill="#e8e8e8" stroke="#e8e8e8"></path><path d="M799 112L819 0L698 0Z" fill="#f4f4f4" stroke="#f4f4f4"></path><path d="M900 239L900 83L806 171Z" fill="#ececec" stroke="#ececec"></path><path d="M298 0L210 0L316 105Z" fill="#f3f3f3" stroke="#f3f3f3"></path><path d="M166 92L78 128L186 181Z" fill="#f4f4f4" stroke="#f4f4f4"></path><path d="M0 500L112 475L87 418Z" fill="#f5f5f5" stroke="#f5f5f5"></path><path d="M0 500L96 600L112 475Z" fill="#f3f3f3" stroke="#f3f3f3"></path><path d="M112 475L96 600L172 498Z" fill="#f5f5f5" stroke="#f5f5f5"></path><path d="M0 330L87 418L75 274Z" fill="#f5f5f5" stroke="#f5f5f5"></path><path d="M113 0L78 128L166 92Z" fill="#e5e5e5" stroke="#e5e5e5"></path><path d="M0 330L0 377L87 418Z" fill="#f3f3f3" stroke="#f3f3f3"></path><path d="M0 330L75 274L0 226Z" fill="#ececec" stroke="#ececec"></path><path d="M0 226L75 274L77 210Z" fill="#f4f4f4" stroke="#f4f4f4"></path><path d="M900 83L900 0L819 0Z" fill="#efefef" stroke="#efefef"></path><path d="M0 377L0 500L87 418Z" fill="#e5e5e5" stroke="#e5e5e5"></path><path d="M0 131L0 226L77 210Z" fill="#e2e2e2" stroke="#e2e2e2"></path><path d="M210 0L113 0L166 92Z" fill="#f2f2f2" stroke="#f2f2f2"></path><path d="M78 128L0 131L77 210Z" fill="#efefef" stroke="#efefef"></path><path d="M0 500L0 600L96 600Z" fill="#e8e8e8" stroke="#e8e8e8"></path><path d="M0 0L0 131L78 128Z" fill="#f3f3f3" stroke="#f3f3f3"></path><path d="M113 0L0 0L78 128Z" fill="#e5e5e5" stroke="#e5e5e5"></path></g></svg>