<svg id="visual" viewBox="0 0 900 600" width="900" height="600" xmlns="http://www.w3.org/2000/svg" xmlns:xlink="http://www.w3.org/1999/xlink" version="1.1"><g stroke-width="1" stroke-linejoin="bevel"><path d="M471 281L556.5 212L458 208Z" fill="#eceaf4" stroke="#eceaf4"></path><path d="M471 281L583.5 314L556.5 212Z" fill="#6863a9" stroke="#6863a9"></path><path d="M556.5 212L469 110L458 208Z" fill="#6863a9" stroke="#6863a9"></path><path d="M325.5 289L463 377L471 281Z" fill="#eceaf4" stroke="#eceaf4"></path><path d="M471 281L463 377L583.5 314Z" fill="#7b75b4" stroke="#7b75b4"></path><path d="M463 377L566.5 385L583.5 314Z" fill="#eceaf4" stroke="#eceaf4"></path><path d="M668 396L670 283L583.5 314Z" fill="#d9d6e9" stroke="#d9d6e9"></path><path d="M583.5 314L670 283L556.5 212Z" fill="#54529f" stroke="#54529f"></path><path d="M556.5 212L581.5 81L469 110Z" fill="#8e88be" stroke="#8e88be"></path><path d="M659 86L581.5 81L556.5 212Z" fill="#54529f" stroke="#54529f"></path><path d="M320.5 206L325.5 289L458 208Z" fill="#ffffff" stroke="#ffffff"></path><path d="M458 208L325.5 289L471 281Z" fill="#a19bc9" stroke="#a19bc9"></path><path d="M318.5 122L320.5 206L458 208Z" fill="#8e88be" stroke="#8e88be"></path><path d="M670 283L694 189L556.5 212Z" fill="#54529f" stroke="#54529f"></path><path d="M694 189L659 86L556.5 212Z" fill="#8e88be" stroke="#8e88be"></path><path d="M469 110L318.5 122L458 208Z" fill="#54529f" stroke="#54529f"></path><path d="M444 0L318.5 122L469 110Z" fill="#d9d6e9" stroke="#d9d6e9"></path><path d="M566.5 385L668 396L583.5 314Z" fill="#b4aed4" stroke="#b4aed4"></path><path d="M670 283L796.5 213L694 189Z" fill="#d9d6e9" stroke="#d9d6e9"></path><path d="M568.5 504L668 396L566.5 385Z" fill="#54529f" stroke="#54529f"></path><path d="M677 0L546.5 0L581.5 81Z" fill="#54529f" stroke="#54529f"></path><path d="M581.5 81L546.5 0L469 110Z" fill="#b4aed4" stroke="#b4aed4"></path><path d="M546.5 0L444 0L469 110Z" fill="#d9d6e9" stroke="#d9d6e9"></path><path d="M234 285L316.5 407L325.5 289Z" fill="#6863a9" stroke="#6863a9"></path><path d="M325.5 289L316.5 407L463 377Z" fill="#a19bc9" stroke="#a19bc9"></path><path d="M463 377L461 502L566.5 385Z" fill="#54529f" stroke="#54529f"></path><path d="M247 221L325.5 289L320.5 206Z" fill="#7b75b4" stroke="#7b75b4"></path><path d="M318.5 122L247 221L320.5 206Z" fill="#a19bc9" stroke="#a19bc9"></path><path d="M349.5 483L461 502L463 377Z" fill="#d9d6e9" stroke="#d9d6e9"></path><path d="M461 502L568.5 504L566.5 385Z" fill="#8e88be" stroke="#8e88be"></path><path d="M247 221L234 285L325.5 289Z" fill="#d9d6e9" stroke="#d9d6e9"></path><path d="M799.5 407L783.5 303L668 396Z" fill="#8e88be" stroke="#8e88be"></path><path d="M668 396L783.5 303L670 283Z" fill="#6863a9" stroke="#6863a9"></path><path d="M694 189L779.5 82L659 86Z" fill="#ffffff" stroke="#ffffff"></path><path d="M783.5 303L796.5 213L670 283Z" fill="#d9d6e9" stroke="#d9d6e9"></path><path d="M316.5 407L349.5 483L463 377Z" fill="#b4aed4" stroke="#b4aed4"></path><path d="M244 506L349.5 483L316.5 407Z" fill="#8e88be" stroke="#8e88be"></path><path d="M659 86L677 0L581.5 81Z" fill="#a19bc9" stroke="#a19bc9"></path><path d="M779.5 82L677 0L659 86Z" fill="#3e4194" stroke="#3e4194"></path><path d="M444 0L315.5 0L318.5 122Z" fill="#54529f" stroke="#54529f"></path><path d="M318.5 122L211 105L247 221Z" fill="#ffffff" stroke="#ffffff"></path><path d="M796.5 213L779.5 82L694 189Z" fill="#6863a9" stroke="#6863a9"></path><path d="M568.5 504L681 504L668 396Z" fill="#6863a9" stroke="#6863a9"></path><path d="M235 0L211 105L318.5 122Z" fill="#8e88be" stroke="#8e88be"></path><path d="M247 221L123.5 313L234 285Z" fill="#6863a9" stroke="#6863a9"></path><path d="M123.5 313L223 398L234 285Z" fill="#3e4194" stroke="#3e4194"></path><path d="M234 285L223 398L316.5 407Z" fill="#eceaf4" stroke="#eceaf4"></path><path d="M681 504L799.5 407L668 396Z" fill="#8e88be" stroke="#8e88be"></path><path d="M900 306L900 178L796.5 213Z" fill="#7b75b4" stroke="#7b75b4"></path><path d="M315.5 0L235 0L318.5 122Z" fill="#a19bc9" stroke="#a19bc9"></path><path d="M568.5 504L663 600L681 504Z" fill="#eceaf4" stroke="#eceaf4"></path><path d="M461 502L541.5 600L568.5 504Z" fill="#b4aed4" stroke="#b4aed4"></path><path d="M432 600L541.5 600L461 502Z" fill="#a19bc9" stroke="#a19bc9"></path><path d="M900 84L789.5 0L779.5 82Z" fill="#b4aed4" stroke="#b4aed4"></path><path d="M779.5 82L789.5 0L677 0Z" fill="#b4aed4" stroke="#b4aed4"></path><path d="M356.5 600L432 600L349.5 483Z" fill="#3e4194" stroke="#3e4194"></path><path d="M349.5 483L432 600L461 502Z" fill="#7b75b4" stroke="#7b75b4"></path><path d="M223 398L244 506L316.5 407Z" fill="#eceaf4" stroke="#eceaf4"></path><path d="M92.5 179L123.5 313L247 221Z" fill="#3e4194" stroke="#3e4194"></path><path d="M223 398L130.5 502L244 506Z" fill="#54529f" stroke="#54529f"></path><path d="M92.5 179L247 221L211 105Z" fill="#b4aed4" stroke="#b4aed4"></path><path d="M244 506L356.5 600L349.5 483Z" fill="#ffffff" stroke="#ffffff"></path><path d="M681 504L807.5 493L799.5 407Z" fill="#eceaf4" stroke="#eceaf4"></path><path d="M900 306L796.5 213L783.5 303Z" fill="#54529f" stroke="#54529f"></path><path d="M796.5 213L900 178L779.5 82Z" fill="#eceaf4" stroke="#eceaf4"></path><path d="M797.5 600L807.5 493L681 504Z" fill="#a19bc9" stroke="#a19bc9"></path><path d="M541.5 600L663 600L568.5 504Z" fill="#b4aed4" stroke="#b4aed4"></path><path d="M900 306L783.5 303L799.5 407Z" fill="#a19bc9" stroke="#a19bc9"></path><path d="M900 398L900 306L799.5 407Z" fill="#d9d6e9" stroke="#d9d6e9"></path><path d="M98.5 96L92.5 179L211 105Z" fill="#54529f" stroke="#54529f"></path><path d="M900 178L900 84L779.5 82Z" fill="#8e88be" stroke="#8e88be"></path><path d="M900 482L900 398L799.5 407Z" fill="#c6c2df" stroke="#c6c2df"></path><path d="M90.5 0L98.5 96L211 105Z" fill="#8e88be" stroke="#8e88be"></path><path d="M130.5 502L240 600L244 506Z" fill="#8e88be" stroke="#8e88be"></path><path d="M244 506L240 600L356.5 600Z" fill="#7b75b4" stroke="#7b75b4"></path><path d="M0 396L94.5 422L123.5 313Z" fill="#eceaf4" stroke="#eceaf4"></path><path d="M123.5 313L94.5 422L223 398Z" fill="#b4aed4" stroke="#b4aed4"></path><path d="M94.5 422L130.5 502L223 398Z" fill="#8e88be" stroke="#8e88be"></path><path d="M900 84L900 0L789.5 0Z" fill="#c6c2df" stroke="#c6c2df"></path><path d="M900 600L900 482L807.5 493Z" fill="#54529f" stroke="#54529f"></path><path d="M807.5 493L900 482L799.5 407Z" fill="#a19bc9" stroke="#a19bc9"></path><path d="M663 600L797.5 600L681 504Z" fill="#54529f" stroke="#54529f"></path><path d="M0 116L0 184L92.5 179Z" fill="#c6c2df" stroke="#c6c2df"></path><path d="M92.5 179L0 303L123.5 313Z" fill="#7b75b4" stroke="#7b75b4"></path><path d="M235 0L90.5 0L211 105Z" fill="#d9d6e9" stroke="#d9d6e9"></path><path d="M0 116L92.5 179L98.5 96Z" fill="#54529f" stroke="#54529f"></path><path d="M0 184L0 303L92.5 179Z" fill="#54529f" stroke="#54529f"></path><path d="M94.5 422L0 518L130.5 502Z" fill="#6863a9" stroke="#6863a9"></path><path d="M0 0L0 116L98.5 96Z" fill="#7b75b4" stroke="#7b75b4"></path><path d="M0 303L0 396L123.5 313Z" fill="#b4aed4" stroke="#b4aed4"></path><path d="M130.5 502L98.5 600L240 600Z" fill="#eceaf4" stroke="#eceaf4"></path><path d="M797.5 600L900 600L807.5 493Z" fill="#7b75b4" stroke="#7b75b4"></path><path d="M0 518L98.5 600L130.5 502Z" fill="#3e4194" stroke="#3e4194"></path><path d="M90.5 0L0 0L98.5 96Z" fill="#7b75b4" stroke="#7b75b4"></path><path d="M0 396L0 518L94.5 422Z" fill="#ffffff" stroke="#ffffff"></path><path d="M0 518L0 600L98.5 600Z" fill="#3e4194" stroke="#3e4194"></path></g></svg>