<svg id="visual" viewBox="0 0 900 600" width="900" height="600" xmlns="http://www.w3.org/2000/svg" xmlns:xlink="http://www.w3.org/1999/xlink" version="1.1"><g><g transform="translate(165 500)"><path d="M0 -147L79.5 -123.7L133.7 -61.1L145.5 20.9L111.1 96.3L41.4 141L-41.4 141L-111.1 96.3L-145.5 20.9L-133.7 -61.1L-79.5 -123.7Z" fill="#808080"></path></g><g transform="translate(589 195)"><path d="M0 -56L30.3 -47.1L50.9 -23.3L55.4 8L42.3 36.7L15.8 53.7L-15.8 53.7L-42.3 36.7L-55.4 8L-50.9 -23.3L-30.3 -47.1Z" fill="#808080"></path></g><g transform="translate(762 433)"><path d="M0 -49L26.5 -41.2L44.6 -20.4L48.5 7L37 32.1L13.8 47L-13.8 47L-37 32.1L-48.5 7L-44.6 -20.4L-26.5 -41.2Z" fill="#808080"></path></g><g transform="translate(63 111)"><path d="M0 -31L16.8 -26.1L28.2 -12.9L30.7 4.4L23.4 20.3L8.7 29.7L-8.7 29.7L-23.4 20.3L-30.7 4.4L-28.2 -12.9L-16.8 -26.1Z" fill="#808080"></path></g><g transform="translate(475 548)"><path d="M0 -22L11.9 -18.5L20 -9.1L21.8 3.1L16.6 14.4L6.2 21.1L-6.2 21.1L-16.6 14.4L-21.8 3.1L-20 -9.1L-11.9 -18.5Z" fill="#808080"></path></g><g transform="translate(851 13)"><path d="M0 -74L40 -62.3L67.3 -30.7L73.2 10.5L55.9 48.5L20.8 71L-20.8 71L-55.9 48.5L-73.2 10.5L-67.3 -30.7L-40 -62.3Z" fill="#808080"></path></g></g></svg>