<svg id="visual" viewBox="0 0 900 600" width="900" height="600" xmlns="http://www.w3.org/2000/svg" xmlns:xlink="http://www.w3.org/1999/xlink" version="1.1"><rect x="0" y="0" width="900" height="600" fill="#fff"></rect><defs><linearGradient id="grad1_0" x1="33.3%" y1="100%" x2="100%" y2="0%"><stop offset="20%" stop-color="#ffffff" stop-opacity="1"></stop><stop offset="80%" stop-color="#ffffff" stop-opacity="1"></stop></linearGradient></defs><defs><linearGradient id="grad2_0" x1="0%" y1="100%" x2="66.7%" y2="0%"><stop offset="20%" stop-color="#ffffff" stop-opacity="1"></stop><stop offset="80%" stop-color="#ffffff" stop-opacity="1"></stop></linearGradient></defs><g transform="translate(900, 600)"><path d="M-486.7 0C-431 -43.6 -375.2 -87.1 -359.4 -148.9C-343.6 -210.6 -367.7 -290.6 -344.2 -344.2C-320.6 -397.8 -249.4 -425 -184.1 -444.4C-118.8 -463.8 -59.4 -475.3 0 -486.7L0 0Z" fill="#3e4194"></path></g><g transform="translate(0, 0)"><path d="M486.7 0C466.6 63.4 446.5 126.8 410.2 169.9C373.9 213.1 321.4 236 285.7 285.7C250 335.3 231.1 411.7 186.3 449.7C141.5 487.7 70.7 487.2 0 486.7L0 0Z" fill="#3e4194"></path></g></svg>