<svg id="visual" viewBox="0 0 900 600" width="900" height="600" xmlns="http://www.w3.org/2000/svg" xmlns:xlink="http://www.w3.org/1999/xlink" version="1.1"><rect x="0" y="0" width="900" height="600" fill="#fff"></rect><path d="M428 0L342 0L342 86L512 86L512 171L473 171L473 257L517 257L517 343L528 343L528 429L380 429L380 514L416 514L416 600L0 600L0 514L0 514L0 429L0 429L0 343L0 343L0 257L0 257L0 171L0 171L0 86L0 86L0 0L0 0Z" fill="#6e6eb1"></path><path d="M280 0L230 0L230 86L347 86L347 171L321 171L321 257L367 257L367 343L358 343L358 429L286 429L286 514L286 514L286 600L0 600L0 514L0 514L0 429L0 429L0 343L0 343L0 257L0 257L0 171L0 171L0 86L0 86L0 0L0 0Z" fill="#3e4194"></path><path d="M232 0L153 0L153 86L93 86L93 171L225 171L225 257L195 257L195 343L133 343L133 429L204 429L204 514L156 514L156 600L0 600L0 514L0 514L0 429L0 429L0 343L0 343L0 257L0 257L0 171L0 171L0 86L0 86L0 0L0 0Z" fill="#2c316d"></path></svg>