<svg id="visual" viewBox="0 0 900 600" width="900" height="600" xmlns="http://www.w3.org/2000/svg" xmlns:xlink="http://www.w3.org/1999/xlink" version="1.1"><g transform="translate(456.51662051387973 304.105789035856)"><path d="M82 -146.4C106.4 -128 126.3 -106.2 148 -81.2C169.8 -56.3 193.4 -28.1 195.6 1.3C197.8 30.7 178.6 61.3 160.1 92.1C141.7 122.8 124.1 153.6 97.6 167C71 180.3 35.5 176.2 2.8 171.4C-30 166.6 -60 161.3 -92.5 151.3C-125 141.4 -159.9 127 -181.6 101C-203.2 75 -211.6 37.5 -208 2.1C-204.4 -33.3 -188.8 -66.7 -168.6 -95.1C-148.3 -123.5 -123.4 -147.1 -94.5 -162.9C-65.7 -178.7 -32.8 -186.9 -2 -183.4C28.8 -179.9 57.7 -164.9 82 -146.4" fill="#fff"></path></g></svg>