<svg id="visual" viewBox="0 0 900 600" width="1200" height="900" xmlns="http://www.w3.org/2000/svg" xmlns:xlink="http://www.w3.org/1999/xlink" version="1.1"><g transform="translate(440.9847654812354 291.90168953161185)"><path d="M200.4 -270.2C257.8 -234.1 301 -173 324.7 -104.5C348.4 -35.9 352.5 40 329 105.3C305.6 170.6 254.5 225.2 195 264.9C135.6 304.6 67.8 329.3 -1.9 331.9C-71.5 334.4 -143 314.9 -195.8 273C-248.6 231.2 -282.6 167 -304.3 99.2C-325.9 31.3 -335.1 -40.3 -317.1 -105.3C-299.1 -170.3 -253.9 -228.8 -196.5 -264.8C-139.1 -300.8 -69.6 -314.5 1 -315.8C71.5 -317.2 143 -306.2 200.4 -270.2" fill="#3e4194"></path></g></svg>