<svg id="visual" viewBox="0 0 900 600" width="900" height="600" xmlns="http://www.w3.org/2000/svg" xmlns:xlink="http://www.w3.org/1999/xlink" version="1.1"><rect x="0" y="0" width="900" height="600" fill="#fff"></rect><defs><linearGradient id="grad1_0" x1="33.3%" y1="0%" x2="100%" y2="100%"><stop offset="20%" stop-color="#ffffff" stop-opacity="1"></stop><stop offset="80%" stop-color="#ffffff" stop-opacity="1"></stop></linearGradient></defs><defs><linearGradient id="grad2_0" x1="0%" y1="0%" x2="66.7%" y2="100%"><stop offset="20%" stop-color="#ffffff" stop-opacity="1"></stop><stop offset="80%" stop-color="#ffffff" stop-opacity="1"></stop></linearGradient></defs><g transform="translate(900, 0)"><path d="M0 486.7C-58.3 453.8 -116.7 420.8 -159.6 385.3C-202.5 349.7 -229.9 311.6 -282.1 282.1C-334.4 252.7 -411.5 231.9 -449.7 186.3C-487.9 140.7 -487.3 70.3 -486.7 0L0 0Z" fill="#3e4194"></path></g><g transform="translate(0, 600)"><path d="M0 -486.7C41.7 -431 83.3 -375.3 149.6 -361.2C216 -347.2 306.9 -374.9 344.2 -344.2C381.4 -313.5 364.9 -224.4 379.7 -157.3C394.5 -90.2 440.6 -45.1 486.7 0L0 0Z" fill="#3e4194"></path></g></svg>