<svg id="visual" viewBox="0 0 900 600" width="2800" height="1100" xmlns="http://www.w3.org/2000/svg" xmlns:xlink="http://www.w3.org/1999/xlink" version="1.1"><path d="M0 280L21.5 287.2C43 294.3 86 308.7 128.8 304C171.7 299.3 214.3 275.7 257.2 263C300 250.3 343 248.7 385.8 248.8C428.7 249 471.3 251 514.2 261.2C557 271.3 600 289.7 642.8 291.8C685.7 294 728.3 280 771.2 270.5C814 261 857 256 878.5 253.5L900 251L900 0L878.5 0C857 0 814 0 771.2 0C728.3 0 685.7 0 642.8 0C600 0 557 0 514.2 0C471.3 0 428.7 0 385.8 0C343 0 300 0 257.2 0C214.3 0 171.7 0 128.8 0C86 0 43 0 21.5 0L0 0Z" fill="#3e4194" stroke-linecap="round" stroke-linejoin="miter"></path></svg>